<?xml version="1.0" encoding="UTF-8" standalone="no"?>
<!DOCTYPE svg PUBLIC "-//W3C//DTD SVG 1.1//EN"
 "http://www.w3.org/Graphics/SVG/1.1/DTD/svg11.dtd">
<!-- Generated by graphviz version 13.1.2 (20250808.2320)
 -->
<!-- Title: Grid Pages: 1 -->
<svg width="582pt" height="247pt"
 viewBox="0.00 0.00 582.00 247.00" xmlns="http://www.w3.org/2000/svg" xmlns:xlink="http://www.w3.org/1999/xlink">
<g id="graph0" class="graph" transform="scale(1 1) rotate(0) translate(4 242.61)">
<title>Grid</title>
<polygon fill="white" stroke="none" points="-4,4 -4,-242.61 577.99,-242.61 577.99,4 -4,4"/>
<!-- 0 -->
<g id="node1" class="node">
<title>0</title>
<ellipse fill="none" stroke="black" cx="541.46" cy="-120.07" rx="32.53" ry="32.53"/>
<text xml:space="preserve" text-anchor="middle" x="541.46" y="-123.27" font-family="Times New Roman,serif" font-size="14.00">0</text>
<text xml:space="preserve" text-anchor="middle" x="541.46" y="-106.77" font-family="Times New Roman,serif" font-size="14.00">0.0 V</text>
</g>
<!-- 1 -->
<g id="node2" class="node">
<title>1</title>
<ellipse fill="none" stroke="black" cx="42.07" cy="-159.07" rx="42.07" ry="42.07"/>
<text xml:space="preserve" text-anchor="middle" x="42.07" y="-162.27" font-family="Times New Roman,serif" font-size="14.00">1</text>
<text xml:space="preserve" text-anchor="middle" x="42.07" y="-145.77" font-family="Times New Roman,serif" font-size="14.00">900.0 V</text>
</g>
<!-- 1&#45;&#45;0 -->
<g id="edge3" class="edge">
<title>1&#45;&#45;0</title>
<path fill="none" stroke="#1f77b4" stroke-width="2" d="M80.17,-177.41C87.3,-180.17 94.83,-182.59 102.15,-184.07 123.71,-188.45 129.65,-184.48 151.65,-184.07 272.5,-181.85 305.87,-202.17 423.44,-174.07 455.86,-166.32 490.19,-149.3 513.22,-136.43"/>
<text xml:space="preserve" text-anchor="middle" x="296.54" y="-225.31" font-family="Times New Roman,serif" font-size="14.00">SS0</text>
<text xml:space="preserve" text-anchor="middle" x="296.54" y="-208.81" font-family="Times New Roman,serif" font-size="14.00">I=0.0 A</text>
<text xml:space="preserve" text-anchor="middle" x="296.54" y="-192.31" font-family="Times New Roman,serif" font-size="14.00">P=0.0 W</text>
</g>
<!-- 99 -->
<g id="node4" class="node">
<title>99</title>
<ellipse fill="none" stroke="black" cx="211.72" cy="-120.07" rx="42.07" ry="42.07"/>
<text xml:space="preserve" text-anchor="middle" x="211.72" y="-123.27" font-family="Times New Roman,serif" font-size="14.00">99</text>
<text xml:space="preserve" text-anchor="middle" x="211.72" y="-106.77" font-family="Times New Roman,serif" font-size="14.00">900.0 V</text>
</g>
<!-- 1&#45;&#45;99 -->
<g id="edge1" class="edge">
<title>1&#45;&#45;99</title>
<path fill="none" stroke="#888888" d="M80.7,-141.77C87.72,-139.03 95.07,-136.48 102.15,-134.57 124,-128.69 148.99,-125.14 169.49,-123.03"/>
<text xml:space="preserve" text-anchor="middle" x="126.9" y="-170.77" font-family="Times New Roman,serif" font-size="14.00">L_1_99</text>
<text xml:space="preserve" text-anchor="middle" x="126.9" y="-154.27" font-family="Times New Roman,serif" font-size="14.00">I=0.0 A</text>
<text xml:space="preserve" text-anchor="middle" x="126.9" y="-137.77" font-family="Times New Roman,serif" font-size="14.00">P=0.0 W</text>
</g>
<!-- 2 -->
<g id="node3" class="node">
<title>2</title>
<ellipse fill="none" stroke="black" cx="381.36" cy="-42.07" rx="42.07" ry="42.07"/>
<text xml:space="preserve" text-anchor="middle" x="381.36" y="-45.27" font-family="Times New Roman,serif" font-size="14.00">2</text>
<text xml:space="preserve" text-anchor="middle" x="381.36" y="-28.77" font-family="Times New Roman,serif" font-size="14.00">900.0 V</text>
</g>
<!-- 2&#45;&#45;0 -->
<g id="edge4" class="edge">
<title>2&#45;&#45;0</title>
<path fill="none" stroke="#1f77b4" stroke-width="2" d="M423.66,-40.34C445,-41.17 470.73,-44.99 490.94,-56.57 505.13,-64.71 516.69,-78.67 525.07,-91.44"/>
<text xml:space="preserve" text-anchor="middle" x="466.19" y="-92.77" font-family="Times New Roman,serif" font-size="14.00">SS1</text>
<text xml:space="preserve" text-anchor="middle" x="466.19" y="-76.27" font-family="Times New Roman,serif" font-size="14.00">I=0.0 A</text>
<text xml:space="preserve" text-anchor="middle" x="466.19" y="-59.77" font-family="Times New Roman,serif" font-size="14.00">P=0.0 W</text>
</g>
<!-- 99&#45;&#45;0 -->
<g id="edge5" class="edge">
<title>99&#45;&#45;0</title>
<path fill="none" stroke="#2ca02c" stroke-dasharray="5,2" d="M254.23,-120.07C320.54,-120.07 448.97,-120.07 508.61,-120.07"/>
<text xml:space="preserve" text-anchor="middle" x="381.36" y="-156.27" font-family="Times New Roman,serif" font-size="14.00">T1</text>
<text xml:space="preserve" text-anchor="middle" x="381.36" y="-139.77" font-family="Times New Roman,serif" font-size="14.00">I=&#45;0.0 A</text>
<text xml:space="preserve" text-anchor="middle" x="381.36" y="-123.27" font-family="Times New Roman,serif" font-size="14.00">P=&#45;0.0 W</text>
</g>
<!-- 99&#45;&#45;2 -->
<g id="edge2" class="edge">
<title>99&#45;&#45;2</title>
<path fill="none" stroke="#888888" d="M236.89,-85.77C246.48,-74.69 258.42,-63.49 271.79,-56.57 292.32,-45.96 317.82,-42.16 338.94,-41.09"/>
<text xml:space="preserve" text-anchor="middle" x="296.54" y="-92.77" font-family="Times New Roman,serif" font-size="14.00">L_99_2</text>
<text xml:space="preserve" text-anchor="middle" x="296.54" y="-76.27" font-family="Times New Roman,serif" font-size="14.00">I=&#45;0.0 A</text>
<text xml:space="preserve" text-anchor="middle" x="296.54" y="-59.77" font-family="Times New Roman,serif" font-size="14.00">P=0.0 W</text>
</g>
</g>
</svg>
